<svg width="512" height="512" viewBox="0 0 512 512" fill="none" xmlns="http://www.w3.org/2000/svg">
  <rect width="512" height="512" rx="100" fill="url(#gradient)"/>
  <path d="M256 120C256 120 176 200 176 280C176 324.8 212.2 360 256 360C299.8 360 336 324.8 336 280C336 200 256 120 256 120Z" fill="white" fill-opacity="0.9"/>
  <path d="M256 140C256 140 192 210 192 275C192 312 220.5 340 256 340C291.5 340 320 312 320 275C320 210 256 140 256 140Z" fill="url(#gradient2)" fill-opacity="0.6"/>
  <circle cx="256" cy="280" r="15" fill="white" fill-opacity="0.95"/>
  <defs>
    <linearGradient id="gradient" x1="0" y1="0" x2="512" y2="512" gradientUnits="userSpaceOnUse">
      <stop offset="0%" stop-color="#c4a882"/>
      <stop offset="100%" stop-color="#8fa3b0"/>
    </linearGradient>
    <linearGradient id="gradient2" x1="192" y1="140" x2="320" y2="340" gradientUnits="userSpaceOnUse">
      <stop offset="0%" stop-color="#d4c8b8"/>
      <stop offset="100%" stop-color="#b8c8d4"/>
    </linearGradient>
  </defs>
</svg>
